<?xml version="1.0" encoding="UTF-8" standalone="no"?>
<!-- Svg Vector Icons : http://www.onlinewebfonts.com/icon -->

<svg
   xmlns:dc="http://purl.org/dc/elements/1.1/"
   xmlns:cc="http://creativecommons.org/ns#"
   xmlns:rdf="http://www.w3.org/1999/02/22-rdf-syntax-ns#"
   xmlns:svg="http://www.w3.org/2000/svg"
   xmlns="http://www.w3.org/2000/svg"
   xmlns:sodipodi="http://sodipodi.sourceforge.net/DTD/sodipodi-0.dtd"
   xmlns:inkscape="http://www.inkscape.org/namespaces/inkscape"
   version="1.1"
   x="0px"
   y="0px"
   viewBox="0 0 32 32"
   enable-background="new 0 0 1000 1000"
   xml:space="preserve"
   id="svg12"
   sodipodi:docname="close_red.svg"
   inkscape:version="0.92.1 r15371"
   width="32"
   height="32"><defs
     id="defs16" /><sodipodi:namedview
     pagecolor="#ffffff"
     bordercolor="#666666"
     borderopacity="1"
     objecttolerance="10"
     gridtolerance="10"
     guidetolerance="10"
     inkscape:pageopacity="0"
     inkscape:pageshadow="2"
     inkscape:window-width="1857"
     inkscape:window-height="1056"
     id="namedview14"
     showgrid="false"
     inkscape:zoom="30.208"
     inkscape:cx="17.700519"
     inkscape:cy="17.331274"
     inkscape:window-x="1983"
     inkscape:window-y="24"
     inkscape:window-maximized="1"
     inkscape:current-layer="svg12" /><metadata
     id="metadata2"> Svg Vector Icons : http://www.onlinewebfonts.com/icon <rdf:RDF><cc:Work
     rdf:about=""><dc:format>image/svg+xml</dc:format><dc:type
       rdf:resource="http://purl.org/dc/dcmitype/StillImage" /><dc:title /></cc:Work></rdf:RDF></metadata><g
     id="g10"
     style="fill:#f26c4f;fill-opacity:1"
     transform="matrix(0.03241705,0,0,0.03241705,-0.20222092,-0.22890937)"><g
       transform="matrix(0.1,0,0,-0.1,0,502)"
       id="g8"
       style="fill:#f26c4f;fill-opacity:1"><path
         d="M 4719.5,4914.6 C 3689.3,4846.2 2723.7,4472.8 1924.2,3835.6 952.8,3061.5 315.5,1929.7 133.7,655.2 c -45,-318.6 -45,-952 0,-1270.6 156.4,-1098.6 629.4,-2056.4 1397.7,-2826.5 385.1,-385.1 776,-664.6 1292.1,-922.6 928.5,-467.2 1968.4,-619.7 3010.3,-441.8 774.1,131 1540.3,471.1 2187.4,971.5 217,166.2 660.7,611.8 826.8,824.9 502.4,650.9 828.8,1376.1 973.5,2154.1 187.7,1026.2 37.1,2089.6 -430,3035.7 C 8674,3634.2 7297.9,4637 5700.8,4865.7 c -261.9,39.1 -766.2,62.6 -981.3,48.9 z m 684.2,-381.2 C 7077,4380.9 8533.3,3311.7 9184.2,1755.7 9758.9,385.4 9608.4,-1215.5 8791.3,-2456.8 7518.7,-4390 5024.5,-5062.4 2962.2,-4026.4 c -449.6,224.8 -785.8,471.1 -1165,850.3 -406.6,404.6 -647,742.8 -891.4,1251 -895.2,1862.9 -406.5,4093.3 1192.4,5426.4 502.4,420.3 1135.7,744.8 1765.1,905 512.2,131 1030.2,174 1540.4,127.1 z"
         id="path4"
         style="fill:#f26c4f;fill-opacity:1"
         inkscape:connector-curvature="0" /><path
         d="m 3167.5,1835.9 c -35.2,-39.1 -50.8,-82.1 -50.8,-131 0,-66.5 41,-111.4 805.4,-877.7 L 4729.4,19.9 3922,-787.4 c -733,-735 -805.4,-811.2 -805.4,-869.9 0,-127.1 66.5,-197.4 185.7,-199.4 76.2,0 89.9,13.7 883.5,805.4 l 807.4,807.3 807.3,-807.3 807.3,-805.4 h 82.1 c 115.3,0 179.8,64.5 179.8,179.8 v 82.1 l -805.4,807.3 -807.2,807.4 807.3,807.3 805.4,807.3 v 82.1 c 0,115.3 -64.5,179.8 -179.8,179.8 h -82.1 L 5800.6,1091 4993.3,283.7 4186,1091 c -801.4,801.4 -807.3,805.4 -887.5,805.4 -66.5,0.1 -90,-11.7 -131,-60.5 z"
         id="path6"
         style="fill:#f26c4f;fill-opacity:1"
         inkscape:connector-curvature="0" /></g></g></svg>