<?xml version="1.0" encoding="UTF-8" standalone="no"?>
<!-- Generator: Adobe Illustrator 16.0.0, SVG Export Plug-In . SVG Version: 6.00 Build 0)  -->

<svg
   xmlns:dc="http://purl.org/dc/elements/1.1/"
   xmlns:cc="http://creativecommons.org/ns#"
   xmlns:rdf="http://www.w3.org/1999/02/22-rdf-syntax-ns#"
   xmlns:svg="http://www.w3.org/2000/svg"
   xmlns="http://www.w3.org/2000/svg"
   xmlns:sodipodi="http://sodipodi.sourceforge.net/DTD/sodipodi-0.dtd"
   xmlns:inkscape="http://www.inkscape.org/namespaces/inkscape"
   version="1.1"
   id="Capa_1"
   x="0px"
   y="0px"
   width="64"
   height="64"
   viewBox="0 0 64 64"
   xml:space="preserve"
   sodipodi:docname="close_blue.svg"
   inkscape:version="0.92.1 r15371"><metadata
     id="metadata150"><rdf:RDF><cc:Work
         rdf:about=""><dc:format>image/svg+xml</dc:format><dc:type
           rdf:resource="http://purl.org/dc/dcmitype/StillImage" /><dc:title></dc:title></cc:Work></rdf:RDF></metadata><defs
     id="defs148" /><sodipodi:namedview
     pagecolor="#ffffff"
     bordercolor="#666666"
     borderopacity="1"
     objecttolerance="10"
     gridtolerance="10"
     guidetolerance="10"
     inkscape:pageopacity="0"
     inkscape:pageshadow="2"
     inkscape:window-width="1857"
     inkscape:window-height="1056"
     id="namedview146"
     showgrid="false"
     inkscape:zoom="7.9999999"
     inkscape:cx="38.567906"
     inkscape:cy="53.558139"
     inkscape:window-x="1983"
     inkscape:window-y="24"
     inkscape:window-maximized="1"
     inkscape:current-layer="Capa_1" /><g
     id="g113"
     transform="matrix(0.36947737,0,0,0.36947737,1.5758336e-4,-162.1203)"
     style="fill:#2074ba;fill-opacity:1"><g
       id="Delete"
       style="fill:#2074ba;fill-opacity:1"><g
         id="g110"
         style="fill:#2074ba;fill-opacity:1"><path
           d="M 109.4332,487.26708 86.500001,510.2113 63.566806,487.26708 48.26708,502.5668 71.211299,525.5 48.278104,548.43319 63.566806,563.72218 86.500001,540.78898 109.4332,563.72218 124.72218,548.43319 101.78899,525.5 124.72218,502.5668 Z m 38.23292,-22.9332 c -33.77818,-33.77818 -88.554054,-33.77818 -122.332235,0 -33.7781801,33.77818 -33.7781801,88.55405 0,122.33223 33.778181,33.77819 88.554055,33.77819 122.332235,0 33.77818,-33.77789 33.77818,-88.55405 0,-122.33223 z m -15.28871,107.04353 c -25.3337,25.33343 -66.410375,25.33343 -91.743798,0 -25.333706,-25.3337 -25.333706,-66.41038 0,-91.7438 25.333706,-25.33371 66.410098,-25.33371 91.743798,0 25.33343,25.33342 25.33343,66.39935 0,91.7438 z"
           id="path108"
           style="fill:#2074ba;fill-opacity:1;stroke-width:0.28267917"
           inkscape:connector-curvature="0" /></g></g></g><g
     id="g115"
     transform="translate(0,-548)" /><g
     id="g117"
     transform="translate(0,-548)" /><g
     id="g119"
     transform="translate(0,-548)" /><g
     id="g121"
     transform="translate(0,-548)" /><g
     id="g123"
     transform="translate(0,-548)" /><g
     id="g125"
     transform="translate(0,-548)" /><g
     id="g127"
     transform="translate(0,-548)" /><g
     id="g129"
     transform="translate(0,-548)" /><g
     id="g131"
     transform="translate(0,-548)" /><g
     id="g133"
     transform="translate(0,-548)" /><g
     id="g135"
     transform="translate(0,-548)" /><g
     id="g137"
     transform="translate(0,-548)" /><g
     id="g139"
     transform="translate(0,-548)" /><g
     id="g141"
     transform="translate(0,-548)" /><g
     id="g143"
     transform="translate(0,-548)" /></svg>