<?xml version="1.0" encoding="UTF-8" standalone="no"?>
<!-- Generator: Adobe Illustrator 16.0.0, SVG Export Plug-In . SVG Version: 6.00 Build 0)  -->

<svg
   xmlns:dc="http://purl.org/dc/elements/1.1/"
   xmlns:cc="http://creativecommons.org/ns#"
   xmlns:rdf="http://www.w3.org/1999/02/22-rdf-syntax-ns#"
   xmlns:svg="http://www.w3.org/2000/svg"
   xmlns="http://www.w3.org/2000/svg"
   xmlns:sodipodi="http://sodipodi.sourceforge.net/DTD/sodipodi-0.dtd"
   xmlns:inkscape="http://www.inkscape.org/namespaces/inkscape"
   version="1.1"
   id="Capa_1"
   x="0px"
   y="0px"
   width="512"
   height="512"
   viewBox="0 0 512.00001 512.00001"
   xml:space="preserve"
   sodipodi:docname="delivery-box.svg"
   inkscape:version="0.92.1 r15371"><metadata
     id="metadata9706"><rdf:RDF><cc:Work
         rdf:about=""><dc:format>image/svg+xml</dc:format><dc:type
           rdf:resource="http://purl.org/dc/dcmitype/StillImage" /><dc:title></dc:title></cc:Work></rdf:RDF></metadata><defs
     id="defs9704" /><sodipodi:namedview
     pagecolor="#ffffff"
     bordercolor="#666666"
     borderopacity="1"
     objecttolerance="10"
     gridtolerance="10"
     guidetolerance="10"
     inkscape:pageopacity="0"
     inkscape:pageshadow="2"
     inkscape:window-width="1920"
     inkscape:window-height="1056"
     id="namedview9702"
     showgrid="false"
     inkscape:zoom="1.0875075"
     inkscape:cx="55.510554"
     inkscape:cy="326.26939"
     inkscape:window-x="1920"
     inkscape:window-y="24"
     inkscape:window-maximized="1"
     inkscape:current-layer="g9669" /><g
     id="g9669"
     transform="translate(0,77.980011)"><path
       d="M 507.48583,11.227172 C 506.96267,9.6843721 505.67275,8.5290121 504.07775,8.1821721 L 308.64327,-34.395628 c -1.58456,-0.34916 -3.23176,0.16124 -4.34768,1.334 l -61.13548,64.25472 -69.58608,-63.35224 c -1.44304,-1.31312 -3.55656,-1.58224 -5.2838,-0.67512 L 6.7486344,52.093972 c -1.29804,0.68324 -2.1982,1.94068 -2.4244,3.39068 -0.2262,1.45 0.24476,2.9232 1.276,3.96952 l 66.2290396,67.393678 -0.04524,218.81428 c 0,2.21328 1.56136,4.12032 3.729397,4.553 l 201.355119,40.2404 c 0.30392,0.0592 0.60668,0.0882 0.9106,0.0882 1.06256,0 2.10308,-0.36308 2.9406,-1.05096 1.07648,-0.8816 1.6994,-2.1982 1.6994,-3.58904 V 178.06301 c 0,-2.21792 -1.57064,-4.12612 -3.74564,-4.55416 l -28.96404,-5.69792 V 45.926252 L 438.56559,91.576894 298.33203,171.28165 c -1.45232,0.82476 -2.34552,2.36524 -2.34552,4.03332 v 205.05204 c 0,1.63908 0.8642,3.161 2.2794,3.99272 0.72732,0.43036 1.5428,0.64728 2.3606,0.64728 0.77024,0 1.53932,-0.19256 2.23648,-0.57536 l 145.88392,-80.31608 c 1.48132,-0.81548 2.4012,-2.3722 2.4012,-4.06232 l 0.0719,-218.952318 55.41436,-65.3834 c 1.04864,-1.24352 1.3746,-2.94756 0.85144,-4.49036 z M 237.55731,165.41669 85.751591,135.53509 237.55731,48.684732 Z m 173.9014,53.37276 c -0.14268,1.4732 -0.99528,2.78052 -2.28636,3.50436 l -12.20088,6.85328 -0.19488,48.2038 c -0.007,1.62864 -0.88972,3.1262 -2.3084,3.92544 l -23.3334,13.09988 c -0.68672,0.38512 -1.45,0.57768 -2.21328,0.57768 -0.79344,0 -1.58456,-0.20996 -2.29332,-0.62292 -1.3862,-0.81548 -2.23648,-2.3084 -2.22952,-3.91732 l 0.17284,-43.07776 -7.95064,4.46484 c -1.73536,0.9744 -3.91036,0.69832 -5.34644,-0.6844 -1.43724,-1.37924 -1.80148,-3.54264 -0.89436,-5.31512 l 26.42016,-51.76036 c 0.62988,-1.23308 1.78756,-2.10888 3.14592,-2.38032 1.3572,-0.26912 2.76428,0.0951 3.8164,0.9918 l 26.12436,22.25808 c 1.131,0.95932 1.71448,2.40932 1.5718,3.87904 z"
       id="path9667"
       style="fill:#c4d4de;fill-opacity:1;stroke-width:1.15999997"
       inkscape:connector-curvature="0" /></g><g
     id="g9671"
     transform="translate(0,77.980011)" /><g
     id="g9673"
     transform="translate(0,77.980011)" /><g
     id="g9675"
     transform="translate(0,77.980011)" /><g
     id="g9677"
     transform="translate(0,77.980011)" /><g
     id="g9679"
     transform="translate(0,77.980011)" /><g
     id="g9681"
     transform="translate(0,77.980011)" /><g
     id="g9683"
     transform="translate(0,77.980011)" /><g
     id="g9685"
     transform="translate(0,77.980011)" /><g
     id="g9687"
     transform="translate(0,77.980011)" /><g
     id="g9689"
     transform="translate(0,77.980011)" /><g
     id="g9691"
     transform="translate(0,77.980011)" /><g
     id="g9693"
     transform="translate(0,77.980011)" /><g
     id="g9695"
     transform="translate(0,77.980011)" /><g
     id="g9697"
     transform="translate(0,77.980011)" /><g
     id="g9699"
     transform="translate(0,77.980011)" /></svg>