<?xml version="1.0" encoding="UTF-8" standalone="no"?>
<!-- Svg Vector Icons : http://www.onlinewebfonts.com/icon -->

<svg
   xmlns:dc="http://purl.org/dc/elements/1.1/"
   xmlns:cc="http://creativecommons.org/ns#"
   xmlns:rdf="http://www.w3.org/1999/02/22-rdf-syntax-ns#"
   xmlns:svg="http://www.w3.org/2000/svg"
   xmlns="http://www.w3.org/2000/svg"
   xmlns:sodipodi="http://sodipodi.sourceforge.net/DTD/sodipodi-0.dtd"
   xmlns:inkscape="http://www.inkscape.org/namespaces/inkscape"
   version="1.1"
   x="0px"
   y="0px"
   viewBox="0 0 1000 1000"
   enable-background="new 0 0 1000 1000"
   xml:space="preserve"
   id="svg8"
   sodipodi:docname="02.svg"
   inkscape:version="0.92.1 r15371"><defs
     id="defs12" /><sodipodi:namedview
     pagecolor="#ffffff"
     bordercolor="#666666"
     borderopacity="1"
     objecttolerance="10"
     gridtolerance="10"
     guidetolerance="10"
     inkscape:pageopacity="0"
     inkscape:pageshadow="2"
     inkscape:window-width="1857"
     inkscape:window-height="1056"
     id="namedview10"
     showgrid="false"
     inkscape:zoom="0.6675088"
     inkscape:cx="264.27234"
     inkscape:cy="460.9824"
     inkscape:window-x="63"
     inkscape:window-y="24"
     inkscape:window-maximized="1"
     inkscape:current-layer="svg8" /><metadata
     id="metadata2"> Svg Vector Icons : http://www.onlinewebfonts.com/icon <rdf:RDF><cc:Work
     rdf:about=""><dc:format>image/svg+xml</dc:format><dc:type
       rdf:resource="http://purl.org/dc/dcmitype/StillImage" /><dc:title></dc:title></cc:Work></rdf:RDF></metadata><g
     id="g6"
     style="fill:#fffffb;fill-opacity:1"><path
       d="M420,693c17.5,1.2,35.3-4,49.6-15.8l4.8-1.5L322.7,523.9l-1.5,4.8c-11.8,14.3-17.1,32.1-15.9,49.6l-53.8,168.5L420,693z M969.4,78.6l-49.6-49.6c-27.4-27.4-71.9-27.4-99.3,0L772.4,77l148.9,148.9l48.1-48.1C996.9,150.4,996.9,106,969.4,78.6z M870.2,277.1L721.2,128.2L375.3,474.1L524.2,623L870.2,277.1z M852.4,921.4H78V147.1h493.6V79H80.2C41.4,79,10,110.5,10,149.2v772.2c0,38.8,31.4,70.2,70.2,70.2h772.2c38.8,0,70.2-31.4,70.2-70.2V430h-70.2V921.4z"
       id="path4"
       style="fill:#fffffb;fill-opacity:1" /></g></svg>