<?xml version="1.0" encoding="UTF-8"?>
<svg width="90px" height="89px" viewBox="0 0 90 89" version="1.1" xmlns="http://www.w3.org/2000/svg" xmlns:xlink="http://www.w3.org/1999/xlink">
    <!-- Generator: Sketch 44.1 (41455) - http://www.bohemiancoding.com/sketch -->
    <title>Monkey</title>
    <desc>Created with Sketch.</desc>
    <defs></defs>
    <g id="Page-1" stroke="none" stroke-width="1" fill="none" fill-rule="evenodd">
        <g id="Боковая-панель-4" transform="translate(-105.000000, -341.000000)" fill="#AAAAAA">
            <path d="M143.6,396 C143.6,394.6 144.7,393.4 146.2,393.4 C147.6,393.4 148.8,394.5 148.8,396 C148.8,397.4 147.7,398.6 146.2,398.6 C144.7,398.6 143.6,397.4 143.6,396 Z M120.6,361.1 C120.4,361 120.2,360.9 120,360.9 C116.9,360.1 113.5,362.7 112.5,366.7 C111.8,369.5 112.3,372.5 114,374.2 C114.2,374.4 114.5,374.5 114.8,374.5 C115.1,374.5 115.4,374.4 115.6,374.2 C116,373.8 116,373.1 115.6,372.6 C114.5,371.5 114.1,369.3 114.6,367.2 C115.3,364.7 117.1,362.9 118.8,362.9 L118.8,362.9 L117.6,367.6 C117.4,368.2 117.8,368.8 118.4,368.9 C119,369.1 119.6,368.7 119.7,368.1 L121.2,362.4 C121.4,361.9 121,361.3 120.6,361.1 Z M194.6,428.1 L194.6,428.4 C194.6,428.6 194.5,428.7 194.4,428.8 C194.3,428.9 194.2,429 194,429.1 C193.8,429.1 193.7,429.2 193.6,429.2 L193.5,429.2 C183.7,429.4 175,429.4 174.9,429.4 C174.3,429.4 173.8,429 173.8,428.4 C173.8,428.3 173.3,422.1 172.8,415.8 C167.4,420.5 159.1,423.2 149.8,423.3 L149.8,423.3 L149.8,423.3 L149.8,423.3 L149.8,423.3 C140.5,423.2 132.2,420.5 126.8,415.8 C126.2,422.1 125.8,428.3 125.8,428.4 C125.8,429 125.3,429.4 124.7,429.4 C124.6,429.4 115.9,429.4 106.1,429.2 L106,429.2 C105.9,429.2 105.7,429.2 105.6,429.1 C105.5,429 105.3,428.9 105.2,428.8 C105.1,428.7 105,428.5 105,428.4 L105,428.1 L105,428 L105,427.9 C105.7,423.9 108.2,416.7 110.6,409.7 C112.8,403.5 115,397 115,395.3 C115,394.4 115,392.1 115.1,389.4 L115,389.3 L115,389.3 C115,389.3 115,389.3 115,389.2 L115,389.2 C115,389.1 114.9,389.1 114.9,389 L114.9,389 C106.4,376.6 107.6,368.3 110,363.5 C112.9,357.7 119.1,354.6 123.6,354.5 L123.6,354.5 L123.6,354.5 L123.7,354.5 L123.7,354.5 L123.7,354.5 L123.7,354.5 L123.7,354.5 L123.9,354.5 L123.9,354.5 L124.5,354.5 C131.8,344.8 143.1,341 149.3,341 L150,341 C156.2,341 167.6,344.7 175.1,354.5 L175.7,354.5 L175.7,354.5 L175.9,354.5 L175.9,354.5 L175.9,354.5 L175.9,354.5 L175.9,354.5 L175.9,354.5 C180.4,354.6 186.6,357.7 189.5,363.5 C192,368.3 193.1,376.7 184.6,389 L184.6,389 C184.6,389.1 184.5,389.1 184.5,389.2 C184.5,389.2 184.5,389.2 184.5,389.3 L184.5,389.3 L184.5,389.3 L184.4,389.4 C184.5,392 184.5,394.4 184.5,395.3 C184.5,397 186.7,403.4 188.9,409.7 C191.3,416.7 193.9,423.9 194.5,427.9 C194.6,427.9 194.6,428 194.6,428.1 C194.6,428 194.6,428.1 194.6,428.1 Z M125.9,402.6 C126.4,400.2 126.7,399.9 128.9,397.6 C130.2,396.3 132.1,394.4 135.1,390.9 L135.1,390.9 C135.9,389.8 140.4,383.2 142.5,380.6 C143.1,379.8 143.5,379 143.5,378.3 C143.5,377.4 142.9,376.8 142.6,376.6 L142.6,376.6 L142.6,376.6 C142.4,376.5 142.2,376.4 142,376.4 L142,376.4 C141.6,376.4 141.1,376.6 140.3,376.9 C140.2,376.9 140.2,376.9 140.1,377 L139.6,377 C139.4,377 139.3,376.9 139.2,376.8 L138.9,376.5 C138.8,376.4 138.8,376.3 138.8,376.1 L138.8,375.9 L138.8,375.7 C138.8,375.5 138.9,375.4 139,375.3 L139.1,375.2 C139.4,374.9 140,373.9 140,373.1 C140,372.8 139.9,372.6 139.7,372.4 L139.7,372.4 L139.7,372.4 L139.7,372.4 L139.7,372.4 L139.7,372.4 C139.2,372.1 138.9,372 138.7,372 L138.7,372 C138.2,372 137.6,372.3 137,372.6 C136.9,372.7 136.8,372.7 136.7,372.8 C136.5,373 136.2,373.1 135.9,373.1 C135.6,373.1 135.3,373 135.1,372.8 C134.9,372.6 134.8,372.3 134.8,372 C134.8,371.7 134.9,371.5 135.1,371.3 L135.2,371.2 C135.6,370.8 135.7,370.5 135.7,370.2 C135.7,369.8 135,369.7 134.7,369.7 L134.4,369.7 L134.4,369.7 C132.3,369.7 130,371.3 128.7,372.4 L128.7,372.4 L128.7,372.4 C128.6,372.5 128.5,372.6 128.4,372.6 L128.4,372.6 L128.4,372.6 L128.4,372.6 L128.4,372.6 L128.4,372.6 L128.4,372.6 L128.4,372.6 L128.4,372.6 L128.4,372.6 L128.4,372.6 L128.4,372.6 L128.4,372.6 C127.1,373.8 124.8,377.1 124.1,378.3 C124.1,378.4 124,378.4 124,378.5 C123.9,378.6 123.8,378.7 123.6,378.8 C123.4,378.9 123.3,378.9 123.1,378.9 C123,378.9 122.9,378.9 122.8,378.8 C122.7,378.7 122.6,378.7 122.5,378.6 C122.4,378.5 122.3,378.4 122.2,378.2 C122.1,378.1 122.1,377.9 122.1,377.8 C122.1,377.8 122.1,377.8 122.1,377.7 L122.1,377.5 C122.1,377.4 122.2,377.3 122.2,377.2 C122.3,376.8 122.5,376 122.5,375.3 C122.5,374.7 122.3,374.2 122,373.8 L122,373.8 L122,373.8 L122,373.8 L122,373.8 L122,373.8 L122,373.8 L122,373.8 C121.7,373.5 121.4,373.4 121,373.4 C120.5,373.4 120,373.8 120,374.4 L120,374.4 L120,374.4 L120,374.4 C119.7,376.8 118.4,379.9 118.4,380.1 C117.8,381.2 117.4,388 117.4,395.5 C117.4,397.4 115.7,402.5 112.9,410.6 C110.8,416.5 108.5,423.2 107.6,427.2 C114.6,427.1 121.1,427.2 123.5,427.2 C123.8,422.7 125.2,405.6 125.9,402.6 Z M127,413.2 C128.2,414.4 129.6,415.5 131.1,416.4 C130.7,414.1 130.4,411.2 130.4,407.9 C130.4,404.1 130.8,400.8 131.7,397.8 C131.2,398.3 130.8,398.7 130.5,399.1 C128.4,401.2 128.4,401.2 128,403.1 C127.7,404.4 127.3,408.5 126.9,413.1 L127,413.2 Z M165.8,417.7 C166.3,415.4 166.8,411.9 166.8,407.9 C166.8,403.3 166.1,396.9 162.7,392.3 C162.6,392.2 157.5,384.6 155.3,381.9 C154.3,380.7 153.8,379.4 153.8,378.2 C153.8,376.4 154.9,375 156,374.5 L156,374.5 C156.5,374.3 157,374.1 157.5,374.1 C157.4,373.7 157.3,373.3 157.3,372.9 C157.3,371.9 157.7,371.1 158.5,370.4 L158.5,370.4 L158.5,370.4 L158.5,370.4 C158.6,370.3 158.7,370.3 158.7,370.2 L158.7,370.2 C159.4,369.7 160.1,369.5 160.9,369.5 L160.9,369.5 L160.9,369.5 L160.9,369.5 L160.9,369.5 C161.2,369.5 161.4,369.5 161.7,369.6 C161.8,368.5 162.7,367.4 164.7,367.2 L164.7,367.2 L165.2,367.2 L165.2,367.2 L165.2,367.2 L165.2,367.2 L165.2,367.2 C168.1,367.2 171,369.3 172.5,370.6 L172.5,370.6 L172.5,370.6 L172.5,370.6 L172.5,370.6 C172.5,370.6 172.5,370.6 172.6,370.7 L172.6,370.7 L172.6,370.7 L172.6,370.7 L172.6,370.7 L172.6,370.7 L172.6,370.7 L172.6,370.7 C173.3,371.4 174.2,372.5 175.1,373.6 C175.3,373 175.6,372.5 176,372 L176,372 L176,372 L176,372 C176.7,371.3 177.6,370.9 178.6,370.9 L178.6,370.9 L178.6,370.9 L178.6,370.9 L178.6,370.9 C180.2,370.9 181.5,372.1 181.8,373.7 L181.8,373.7 L181.8,373.7 L181.8,373.7 L181.8,373.7 L181.8,373.7 L181.8,373.7 L181.8,373.7 L181.8,373.7 C182.1,375.8 183.3,378.8 183.3,378.9 C183.8,379.8 184.1,382.5 184.2,385.5 C190.6,375.2 189.6,368.3 187.6,364.3 C185.2,359.6 180.4,357 176.6,356.6 C177.1,357.4 177.6,358.2 178,359.1 C178.1,359.3 178.1,359.4 178.1,359.6 C178.1,360 177.9,360.4 177.5,360.6 C177,360.9 176.3,360.7 176,360.1 C169.6,347.9 156.7,343.2 150.1,343.2 L149.4,343.2 C142.8,343.2 129.8,347.8 123.3,360.2 C123.1,360.6 122.7,360.8 122.3,360.8 C122.1,360.8 122,360.8 121.8,360.7 C121.4,360.5 121.2,360.1 121.2,359.7 C121.2,359.5 121.2,359.4 121.3,359.2 C121.8,358.3 122.2,357.5 122.7,356.7 C118.9,357.1 114.1,359.7 111.7,364.4 C109.6,368.4 108.7,375.3 115.1,385.6 C115.3,382.6 115.6,379.8 116.1,378.9 L116.1,378.9 C116.1,378.9 117.2,375.9 117.5,373.9 L117.5,373.9 L117.5,373.9 L117.5,373.9 L117.5,373.9 C117.7,372.2 119.1,371 120.7,371 L120.7,371 L120.7,371 L120.7,371 L120.7,371 C121.6,371 122.5,371.4 123.2,372.1 L123.2,372.1 L123.2,372.1 L123.2,372.1 L123.2,372.1 L123.2,372.1 L123.2,372.1 C123.6,372.5 123.9,373.1 124.1,373.7 C124.9,372.6 125.8,371.5 126.6,370.8 L126.6,370.8 L126.6,370.8 L126.6,370.8 L126.6,370.8 L126.6,370.8 L126.6,370.8 L126.6,370.8 C126.6,370.8 126.6,370.8 126.7,370.7 L126.7,370.7 L126.7,370.7 L126.7,370.7 L126.7,370.7 C128.2,369.4 131.1,367.3 134,367.3 L134,367.3 L134,367.3 L134,367.3 L134,367.3 L134.5,367.3 L134.5,367.3 C136.5,367.5 137.4,368.6 137.5,369.7 C137.8,369.6 138,369.6 138.3,369.6 L138.3,369.6 L138.3,369.6 L138.3,369.6 L138.3,369.6 C139.1,369.6 139.8,369.8 140.5,370.3 L140.5,370.3 C140.6,370.4 140.7,370.4 140.7,370.5 L140.7,370.5 L140.7,370.5 L140.7,370.5 C141.5,371.1 141.9,372 141.9,373 C141.9,373.4 141.8,373.8 141.7,374.2 C142.1,374.2 142.5,374.3 142.9,374.4 C143,374.4 143.1,374.5 143.2,374.5 L143.2,374.5 C144.3,375 145.4,376.4 145.4,378.2 C145.4,379.4 144.9,380.7 143.9,381.9 C141.7,384.6 136.6,392.2 136.5,392.2 C133,396.8 132.3,403.2 132.3,407.8 C132.3,411.8 132.8,415.3 133.3,417.6 C137.8,419.7 143.3,420.9 149.4,421 C155.7,421.1 161.3,419.9 165.8,417.7 Z M172.5,413.1 C172.1,408.5 171.6,404.4 171.4,403.1 C171,401.3 171,401.3 168.9,399.1 C168.5,398.7 168.1,398.3 167.7,397.8 C168.5,400.7 169,404.1 169,407.9 C169,411.1 168.7,414.1 168.3,416.4 C169.8,415.5 171.2,414.4 172.4,413.2 L172.5,413.1 Z M192.2,427 C191.3,423 189,416.3 186.9,410.4 C184.1,402.3 182.4,397.3 182.4,395.3 C182.4,387.9 182,381 181.4,380.1 C181.3,379.8 180,376.7 179.7,374.3 L179.7,374.3 L179.7,374.3 L179.7,374.3 L179.7,374.3 L179.7,374.3 L179.7,374.3 L179.7,374.3 L179.7,374.3 C179.6,373.7 179.2,373.3 178.7,373.3 C178.4,373.3 178,373.5 177.7,373.8 L177.7,373.8 C177.4,374.1 177.2,374.6 177.2,375.3 C177.2,376 177.4,376.7 177.5,377.2 C177.5,377.2 177.5,377.2 177.5,377.3 C177.6,377.5 177.6,377.6 177.6,377.8 C177.6,378.4 177.1,378.9 176.5,378.9 C176.3,378.9 176.2,378.9 176,378.8 C175.9,378.7 175.7,378.7 175.6,378.5 C175.6,378.3 175.6,378.3 175.6,378.2 C174.8,377 172.6,373.7 171.3,372.5 L171.3,372.5 L171.3,372.5 L171.3,372.5 C171.2,372.4 171.1,372.4 171,372.3 L171,372.3 L171,372.3 C169.7,371.2 167.4,369.6 165.3,369.6 L165.3,369.6 L165,369.6 C164.7,369.6 164,369.7 164,370.1 C164,370.3 164.1,370.7 164.4,371 C164.7,371.2 164.9,371.5 164.9,371.9 C164.9,372.5 164.4,373 163.8,373 C163.6,373 163.4,372.9 163.2,372.8 C163,372.7 162.9,372.6 162.7,372.5 C162.1,372.2 161.5,371.9 161,371.9 L161,371.9 C160.8,371.9 160.4,371.9 160,372.3 L160,372.3 L160,372.3 L160,372.3 L160,372.3 C159.8,372.5 159.7,372.7 159.7,373 C159.7,373.7 160.2,374.6 160.5,375 C160.8,375.2 161,375.5 161,375.9 C161,376.5 160.5,377 159.9,377 L159.9,377 L159.7,377 C159.6,377 159.6,377 159.5,376.9 C159.3,376.8 159.1,376.8 159,376.7 L159,376.7 C158.5,376.5 158.1,376.4 157.8,376.4 L157.8,376.4 C157.6,376.4 157.4,376.4 157.2,376.6 C156.8,376.8 156.2,377.4 156.2,378.3 C156.2,379 156.5,379.8 157.2,380.6 C159.3,383.1 163.7,389.7 164.6,390.9 L164.6,390.9 C167.7,394.4 169.6,396.3 170.8,397.6 C173.1,399.9 173.3,400.2 173.8,402.6 C174.5,405.6 175.8,422.7 176.2,427.2 C178.3,427.2 184.8,427.1 192.2,427 Z M153.3,398.6 C154.7,398.6 155.9,397.5 155.9,396 C155.9,394.6 154.8,393.4 153.3,393.4 C151.9,393.4 150.7,394.5 150.7,396 C150.7,397.4 151.8,398.6 153.3,398.6 Z M161.2,404.5 C161.3,404.8 161.3,405.1 161.3,405.4 C161.3,410.3 156.2,414.2 149.7,414.4 L149.7,414.4 L149.6,414.4 L149.6,414.4 C143.1,414.2 138.1,410.3 138.1,405.5 C138.1,405.2 138.1,404.9 138.2,404.6 L138.2,404.4 C138.3,403.9 138.7,403.5 139.3,403.5 L160.1,403.5 C160.6,403.5 161.1,403.9 161.2,404.4 L161.2,404.5 Z M159.1,405.5 L140.3,405.5 C140.4,409 144.6,412 149.7,412.1 L149.7,412.1 C154.8,412 159,409.1 159.1,405.5 Z M179.8,368.8 C180,369.4 180.6,369.7 181.1,369.6 C181.7,369.4 182,368.8 181.9,368.3 L180.5,363 C182.3,363 184.1,364.8 184.8,367.3 C185.3,369.4 185,371.6 183.8,372.7 C183.4,373.1 183.4,373.8 183.8,374.3 C184,374.5 184.3,374.6 184.6,374.6 C184.9,374.6 185.2,374.5 185.4,374.3 C187.1,372.6 187.7,369.7 187,366.8 C185.9,362.8 182.6,360.2 179.5,361 C179.3,361.1 179.1,361.1 178.8,361.3 C178.3,361.5 178,362.1 178.2,362.6 L179.8,368.8 Z" id="Monkey"></path>
        </g>
    </g>
</svg>