<?xml version="1.0" encoding="UTF-8" standalone="no"?>
<svg
   xmlns:dc="http://purl.org/dc/elements/1.1/"
   xmlns:cc="http://creativecommons.org/ns#"
   xmlns:rdf="http://www.w3.org/1999/02/22-rdf-syntax-ns#"
   xmlns:svg="http://www.w3.org/2000/svg"
   xmlns="http://www.w3.org/2000/svg"
   xmlns:sodipodi="http://sodipodi.sourceforge.net/DTD/sodipodi-0.dtd"
   xmlns:inkscape="http://www.inkscape.org/namespaces/inkscape"
   viewBox="0 0 95 95"
   version="1.1"
   id="svg8"
   sodipodi:docname="sm-instagram.svg"
   width="95"
   height="95"
   inkscape:version="0.92.1 r15371">
  <metadata
     id="metadata14">
    <rdf:RDF>
      <cc:Work
         rdf:about="">
        <dc:format>image/svg+xml</dc:format>
        <dc:type
           rdf:resource="http://purl.org/dc/dcmitype/StillImage" />
        <dc:title></dc:title>
      </cc:Work>
    </rdf:RDF>
  </metadata>
  <defs
     id="defs12" />
  <sodipodi:namedview
     pagecolor="#ffffff"
     bordercolor="#666666"
     borderopacity="1"
     objecttolerance="10"
     gridtolerance="10"
     guidetolerance="10"
     inkscape:pageopacity="0"
     inkscape:pageshadow="2"
     inkscape:window-width="1857"
     inkscape:window-height="1056"
     id="namedview10"
     showgrid="false"
     inkscape:zoom="5.2149125"
     inkscape:cx="7.30034"
     inkscape:cy="23.374941"
     inkscape:window-x="63"
     inkscape:window-y="24"
     inkscape:window-maximized="1"
     inkscape:current-layer="svg8" />
  <path
     style="fill:#000000;stroke-width:0.18855006"
     d="m 47.551804,8.6980891 c 12.683008,0 14.185186,0.048457 19.194395,0.27698 4.631167,0.2113646 7.146047,0.9849855 8.819995,1.6354829 a 14.716709,14.716709 0 0 1 5.46154,3.553226 14.716709,14.716709 0 0 1 3.553226,5.461541 c 0.650498,1.673758 1.424307,4.188828 1.635483,8.819994 0.228523,5.008832 0.27698,6.51101 0.27698,19.194395 0,12.683385 -0.04846,14.185186 -0.27698,19.194395 -0.211365,4.631166 -0.985174,7.146047 -1.635483,8.819994 a 15.730165,15.730165 0 0 1 -9.014766,9.014767 c -1.673759,0.650497 -4.188828,1.424307 -8.819995,1.635483 -5.007889,0.228523 -6.510067,0.27698 -19.194395,0.27698 -12.684327,0 -14.18594,-0.04846 -19.194395,-0.27698 -4.631166,-0.211365 -7.146047,-0.985174 -8.819994,-1.635483 A 14.71652,14.71652 0 0 1 14.075874,81.115638 14.716897,14.716897 0 0 1 10.522648,75.654097 C 9.8721508,73.980339 9.0983408,71.465269 8.8871648,66.834103 c -0.228522,-5.008643 -0.27698,-6.51101 -0.27698,-19.194395 0,-12.683385 0.04846,-14.185186 0.27698,-19.194395 0.211365,-4.631166 0.984986,-7.146047 1.6354832,-8.819994 a 14.716709,14.716709 0 0 1 3.553603,-5.46173 14.716897,14.716897 0 0 1 5.461541,-3.553225 c 1.673759,-0.650498 4.188828,-1.4243074 8.819994,-1.6354835 5.008832,-0.2285226 6.511011,-0.27698 19.194395,-0.27698 m 0,-8.55847533 c -12.900217,0 -14.518354,0.054679 -19.583939,0.2858419 -5.05597,0.2307852 -8.508698,1.03363143 -11.530024,2.20792113 A 23.283669,23.283669 0 0 0 8.0251138,8.111887 23.283669,23.283669 0 0 0 2.544907,16.52499 c -1.1733469,3.021515 -1.9761931,6.474243 -2.2060356,11.530213 -0.2321051,5.065586 -0.2867846,6.683722 -0.2867846,19.583939 0,12.900218 0.05468,14.518354 0.2867846,19.58394 0.2307853,5.055969 1.0336314,8.508698 2.2079211,11.530024 a 23.283857,23.283857 0 0 0 5.4786993,8.413103 23.283291,23.283291 0 0 0 8.4131032,5.478699 c 3.021514,1.17429 6.474243,1.977136 11.530024,2.207921 5.06634,0.231162 6.683911,0.285842 19.583939,0.285842 12.900029,0 14.518354,-0.05468 19.58394,-0.285842 5.055969,-0.230785 8.508698,-1.033631 11.530024,-2.207921 A 24.288452,24.288452 0 0 0 92.558324,78.753106 c 1.17429,-3.021515 1.977136,-6.474243 2.207921,-11.530024 0.231162,-5.06634 0.285842,-6.683911 0.285842,-19.58394 0,-12.900028 -0.05468,-14.518353 -0.285842,-19.583939 -0.230785,-5.05597 -1.033631,-8.508698 -2.207921,-11.530024 A 23.283291,23.283291 0 0 0 87.079625,8.1120755 23.28348,23.28348 0 0 0 78.665956,2.6322454 C 75.644442,1.4588985 72.191713,0.65605227 67.135744,0.42620977 62.070158,0.19410467 60.452022,0.13942517 47.551804,0.13942517 v 0 z"
     id="path2"
     inkscape:connector-curvature="0" />
  <path
     style="fill:#000000;stroke-width:0.18855006"
     d="M 47.551804,23.247365 A 24.391777,24.391777 0 1 0 71.943581,47.639142 24.391777,24.391777 0 0 0 47.551804,23.247365 Z m 0,40.224891 A 15.833113,15.833113 0 1 1 63.385106,47.639142 15.833302,15.833302 0 0 1 47.551804,63.472256 Z"
     id="path4"
     inkscape:connector-curvature="0" />
  <circle
     style="fill:#000000;stroke-width:0.18855006"
     cx="72.907257"
     cy="22.283684"
     id="circle6"
     r="5.6998677" />
</svg>
