<?xml version="1.0" encoding="UTF-8" standalone="no"?>
<svg
   xmlns:dc="http://purl.org/dc/elements/1.1/"
   xmlns:cc="http://creativecommons.org/ns#"
   xmlns:rdf="http://www.w3.org/1999/02/22-rdf-syntax-ns#"
   xmlns:svg="http://www.w3.org/2000/svg"
   xmlns="http://www.w3.org/2000/svg"
   xmlns:sodipodi="http://sodipodi.sourceforge.net/DTD/sodipodi-0.dtd"
   xmlns:inkscape="http://www.inkscape.org/namespaces/inkscape"
   width="95"
   height="95"
   version="1.1"
   id="svg12"
   sodipodi:docname="sm-mailru-icon.svg"
   inkscape:version="0.92.2 (5c3e80d, 2017-08-06)">
  <metadata
     id="metadata18">
    <rdf:RDF>
      <cc:Work
         rdf:about="">
        <dc:format>image/svg+xml</dc:format>
        <dc:type
           rdf:resource="http://purl.org/dc/dcmitype/StillImage" />
        <dc:title></dc:title>
      </cc:Work>
    </rdf:RDF>
  </metadata>
  <defs
     id="defs16" />
  <sodipodi:namedview
     pagecolor="#ffffff"
     bordercolor="#666666"
     borderopacity="1"
     objecttolerance="10"
     gridtolerance="10"
     guidetolerance="10"
     inkscape:pageopacity="0"
     inkscape:pageshadow="2"
     inkscape:window-width="1920"
     inkscape:window-height="1056"
     id="namedview14"
     showgrid="false"
     inkscape:zoom="2.4842105"
     inkscape:cx="47.5"
     inkscape:cy="47.5"
     inkscape:window-x="0"
     inkscape:window-y="0"
     inkscape:window-maximized="1"
     inkscape:current-layer="svg12" />
  <g
     id="g5">
    <title
       id="title2">background</title>
    <rect
       fill="none"
       id="canvas_background"
       height="97"
       width="97"
       y="-1"
       x="-1" />
  </g>
  <g
     id="g10"
     style="fill:#ffffff;fill-opacity:1">
    <title
       id="title7">Layer 1</title>
    <path
       stroke="null"
       fill="#000000"
       id="path24_3_"
       d="m63.827867,47.066831c-0.536669,-10.450713 -8.296612,-16.736593 -17.667595,-16.736593l-0.352818,0c-10.813823,0 -16.810092,8.503534 -16.810092,18.163785c0,10.814168 7.254184,17.645973 16.769267,17.645973c10.605102,0 17.580281,-7.770233 18.085001,-16.959507l-0.023832,-2.113658l0.000069,0zm-17.967811,-26.091276c7.225414,0 14.019919,3.194075 19.007128,8.195447l0,0.018649c0,-2.400056 1.616016,-4.210252 3.858505,-4.210252l0.567893,-0.003805c3.507102,0 4.229386,3.320075 4.229386,4.37034l0.015883,37.325682c-0.248096,2.444783 2.522531,3.706945 4.057622,2.137419c5.994473,-6.159571 13.163829,-31.665547 -3.726117,-46.440422c-15.740658,-13.777876 -36.861786,-11.508421 -48.09443,-3.765525c-11.942148,8.235581 -19.581754,26.465405 -12.160054,43.586039c8.091448,18.672786 31.243167,24.24243 45.003971,18.686258c6.967753,-2.812142 10.184866,6.606057 2.948468,9.684046c-10.933149,4.656403 -41.368102,4.186465 -55.58434,-20.44139c-9.605609,-16.628001 -9.096606,-45.885652 16.380978,-61.043164c19.488051,-11.599283 45.183577,-8.388894 60.677211,7.791903c16.195329,16.915473 15.249095,48.592727 -0.545512,60.906136c-7.15765,5.595892 -17.789002,0.151902 -17.721927,-8.000957l-0.072773,-2.665211c-4.983616,4.944966 -11.616651,7.830229 -18.842065,7.830229c-14.275851,0 -26.8377,-12.557946 -26.8377,-26.836286c0,-14.415668 12.561849,-27.125204 26.8377,-27.125204l0,0"
       style="fill:#ffffff;fill-opacity:1" />
  </g>
</svg>
