<?xml version="1.0" encoding="UTF-8" standalone="no"?>
<svg
   xmlns:dc="http://purl.org/dc/elements/1.1/"
   xmlns:cc="http://creativecommons.org/ns#"
   xmlns:rdf="http://www.w3.org/1999/02/22-rdf-syntax-ns#"
   xmlns:svg="http://www.w3.org/2000/svg"
   xmlns="http://www.w3.org/2000/svg"
   xmlns:sodipodi="http://sodipodi.sourceforge.net/DTD/sodipodi-0.dtd"
   xmlns:inkscape="http://www.inkscape.org/namespaces/inkscape"
   width="95"
   height="95"
   version="1.1"
   id="svg1674"
   sodipodi:docname="sm-yandex-icon_green.svg"
   inkscape:version="0.92.2 (5c3e80d, 2017-08-06)">
  <metadata
     id="metadata1680">
    <rdf:RDF>
      <cc:Work
         rdf:about="">
        <dc:format>image/svg+xml</dc:format>
        <dc:type
           rdf:resource="http://purl.org/dc/dcmitype/StillImage" />
        <dc:title></dc:title>
      </cc:Work>
    </rdf:RDF>
  </metadata>
  <defs
     id="defs1678" />
  <sodipodi:namedview
     pagecolor="#ffffff"
     bordercolor="#666666"
     borderopacity="1"
     objecttolerance="10"
     gridtolerance="10"
     guidetolerance="10"
     inkscape:pageopacity="0"
     inkscape:pageshadow="2"
     inkscape:window-width="1920"
     inkscape:window-height="1056"
     id="namedview1676"
     showgrid="false"
     inkscape:zoom="2.4842105"
     inkscape:cx="47.5"
     inkscape:cy="47.5"
     inkscape:window-x="0"
     inkscape:window-y="0"
     inkscape:window-maximized="1"
     inkscape:current-layer="svg1674" />
  <g
     id="g1667">
    <title
       id="title1664">background</title>
    <rect
       fill="none"
       id="canvas_background"
       height="97"
       width="97"
       y="-1"
       x="-1" />
  </g>
  <g
     id="g1672"
     style="fill:#00a651;fill-opacity:1">
    <title
       id="title1669">Layer 1</title>
    <path
       stroke="null"
       id="path40"
       fill="#000000"
       d="m68.630596,0.337903l-14.295435,0c-14.046781,0 -25.959018,10.692139 -25.959018,31.450396c0,12.453075 5.768531,21.634811 16.049795,26.164142l-19.185221,34.720483c-0.627899,1.13335 0,2.012409 1.00276,2.012409l8.90427,0c0.7516,0 1.255799,-0.250847 1.506332,-0.879059l17.430548,-34.092271l6.269911,0l0,34.092271c0,0.374861 0.374861,0.879059 0.876554,0.879059l7.776557,0c0.7516,0 1.003073,-0.377366 1.003073,-1.003699l0,-92.085741c-0.000313,-0.880625 -0.502006,-1.257991 -1.380126,-1.257991zm-8.276371,51.32615l-5.266838,0c-8.276057,0 -16.301268,-6.038168 -16.301268,-21.133431c0,-15.727234 7.523518,-22.142454 15.172302,-22.142454l6.396118,0l0,43.275886l-0.000313,0z"
       style="fill:#00a651;fill-opacity:1" />
  </g>
  <path
     style="fill:#00a651;fill-opacity:1;stroke:#aa0000;stroke-width:0.40254238"
     d=""
     id="path2225"
     inkscape:connector-curvature="0" />
</svg>
