<svg width="95" height="95" xmlns="http://www.w3.org/2000/svg">

 <g>
  <title>background</title>
  <rect fill="none" id="canvas_background" height="97" width="97" y="-1" x="-1"/>
 </g>
 <g>
  <title>Layer 1</title>
  <path stroke="null" id="path40" fill="#000000" d="m68.630596,0.337903l-14.295435,0c-14.046781,0 -25.959018,10.692139 -25.959018,31.450396c0,12.453075 5.768531,21.634811 16.049795,26.164142l-19.185221,34.720483c-0.627899,1.13335 0,2.012409 1.00276,2.012409l8.90427,0c0.7516,0 1.255799,-0.250847 1.506332,-0.879059l17.430548,-34.092271l6.269911,0l0,34.092271c0,0.374861 0.374861,0.879059 0.876554,0.879059l7.776557,0c0.7516,0 1.003073,-0.377366 1.003073,-1.003699l0,-92.085741c-0.000313,-0.880625 -0.502006,-1.257991 -1.380126,-1.257991zm-8.276371,51.32615l-5.266838,0c-8.276057,0 -16.301268,-6.038168 -16.301268,-21.133431c0,-15.727234 7.523518,-22.142454 15.172302,-22.142454l6.396118,0l0,43.275886l-0.000313,0z"/>
 </g>
</svg>